<svg width="485" height="484" viewBox="0 0 485 484" fill="none" xmlns="http://www.w3.org/2000/svg">
<g id="attitude_indicator 1" clip-path="url(#clip0_5_14)">
<g id="pitch_container">
<g id="background">
<path id="upper" d="M483.78 0H0V241.89H483.78V0Z" fill="#60A1FA"/>
<path id="lower" d="M483.78 241.89H0V483.78H483.78V241.89Z" fill="#83623D"/>
</g>
<g id="pitch_indicator">
<path id="pitch lines" d="M241.57 417.219H195.455V415.618V414.017H241.57H287.684V415.618V417.219H241.57ZM241.57 391.6H162.791V389.999V388.398H241.57H320.348V389.999V391.6H241.57ZM241.57 366.621H195.455V365.02V363.419H241.57H287.684V365.02V366.621H241.57ZM241.57 341.643H162.791V340.041V338.44H241.57H320.348V340.041V341.643H241.57ZM241.841 316.508L196.318 316.672L195.886 316.241L195.455 315.81V314.636V313.462H241.614H287.773L287.568 314.903L287.364 316.344L241.841 316.508ZM240.929 291.045H162.15V289.444V287.842H240.929H319.708V289.444V291.045H240.929ZM240.929 266.066H194.815V264.465V262.864H240.929H287.044V264.465V266.066H240.929ZM215.737 241.087H193.107L192.68 240.66L192.253 240.233V239.059V237.885H215.31H238.367V239.486V241.087H215.737ZM267.349 240.936L245.412 241.104V239.495V237.885H267.553H289.695L289.49 239.326L289.285 240.767L267.349 240.936ZM241.57 216.109H195.455V214.187V212.266H241.57H287.684V214.187V216.109H241.57ZM241.57 190.49H162.065L162.268 188.728L162.47 186.967H241.57H320.669L320.871 188.728L321.074 190.49H241.57ZM241.57 165.511H195.455V163.589V161.668H241.57H287.684V163.589V165.511H241.57ZM241.997 140.532H163.004L162.577 140.105L162.15 139.678V138.184V136.689H241.57H320.989V138.611V140.532H241.997ZM241.57 114.913H195.455V112.992V111.07H241.57H287.684V112.992V114.913H241.57ZM241.527 89.9343H162.065L162.268 88.173L162.47 86.4116L241.73 86.249L320.989 86.0864V88.0103V89.9343H241.527ZM240.929 64.9556H194.815V63.0342V61.1128H240.929H287.044V63.0342V64.9556H240.929Z" fill="#F9F9F9"/>
<path id="numbers" d="M146.03 395.082L145.177 395.363L143.802 394.807L142.426 394.251L141.968 393.51L141.51 392.769L142.147 392.132L142.785 391.495L144.056 392.289L145.328 393.083L146.427 392.661L147.526 392.24L147.262 391.439L146.999 390.639L145.608 390.435L144.217 390.23V389.574V388.918L145.453 388.594L146.69 388.271L147.044 387.349L147.398 386.427L146.405 386.046L145.412 385.665L144.686 386.391L143.961 387.116H142.808H141.655V386.575V386.034L142.826 384.974L143.997 383.914H145.43H146.863L148.102 384.577L149.341 385.24V386.781V388.322L148.658 388.743L147.976 389.165L149.08 390.385L150.184 391.605L149.456 393.203L148.728 394.802H147.806H146.883L146.03 395.082ZM155.845 395.443H154.606L153.094 394.218L151.582 392.994V389.802V386.61L152.802 385.262L154.022 383.914L155.684 383.925L157.347 383.937L158.051 384.407L158.756 384.878L159.492 386.277L160.229 387.676V389.989V392.302L158.657 393.874L157.085 395.446L155.845 395.443ZM156.814 392.791L157.667 392.083L157.657 389.76L157.647 387.437L157.035 386.476L156.422 385.515L155.283 386.221L154.144 386.926L153.937 389.397L153.73 391.869L154.845 392.684L155.96 393.5L156.814 392.791ZM329.312 395.067L327.714 395.435L326.433 394.693L325.152 393.951L324.698 393.261L324.245 392.571L324.858 391.957L325.472 391.344L326.241 392.112L327.009 392.881H328.483H329.956V391.86V390.839L328.675 390.505L327.394 390.17V389.358V388.547L328.675 388.212L329.956 387.877V387.157V386.436L328.952 386.051L327.948 385.666L327.223 386.391L326.497 387.117H325.664H324.832V386.179V385.241L326.071 384.578L327.31 383.915H328.854H330.398L331.589 385.231L332.781 386.548L331.956 387.869L331.131 389.189L331.824 389.882L332.518 390.575V391.97V393.365L331.713 394.032L330.909 394.7L329.312 395.067ZM338.211 395.443H337.583L336.011 393.871L334.439 392.298V389.387V386.476L335.72 385.195L337.001 383.914H338.46H339.918L341.291 384.876L342.664 385.837L343.085 387.755L343.506 389.674L342.753 391.958L341.999 394.241L340.419 394.842L338.839 395.443H338.211ZM339.295 393.092L340.214 392.739L340.621 391.119L341.028 389.498L340.44 387.827L339.852 386.156H338.587H337.321L337.122 388.925L336.923 391.694L337.649 392.57L338.376 393.445L339.295 393.092ZM145.498 344.845H141.655V344.014V343.183L144.217 340.682L146.779 338.18V337.067V335.954L146.098 335.533L145.417 335.112L144.286 336.136L143.155 337.159H142.358H141.561L141.772 336.06L141.984 334.962L143.741 333.979L145.498 332.996L147.259 333.978L149.02 334.96L149.217 336.316L149.413 337.673L147.455 339.902L145.498 342.132V342.528V342.924H147.419H149.341V343.884V344.845H145.498ZM155.425 344.845H153.256L152.259 343.421L151.262 341.998V338.985V335.971L152.996 334.608L154.729 333.244L156.358 333.635L157.987 334.027L158.788 335.075L159.588 336.123V339.061V341.998L158.591 343.421L157.594 344.845H155.425ZM155.464 342.924H156.418L157.069 341.211L157.72 339.499L157.334 337.742L156.948 335.985L156.045 335.639L155.142 335.292L154.163 336.271L153.183 337.251V338.848V340.446L153.846 341.685L154.509 342.923L155.464 342.924ZM328.712 344.845H324.907L324.474 344.143L324.04 343.441L327.085 340.35L330.131 337.258L329.743 336.248L329.355 335.238H328.354H327.354L326.985 336.198L326.616 337.159H325.404H324.191V336.641V336.123L324.992 335.075L325.793 334.027L327.522 333.61L329.251 333.194L330.909 334.852L332.567 336.51L331.824 337.955L331.08 339.401L329.437 341.162L327.795 342.924H330.156H332.518V343.884V344.845H328.712ZM338.282 344.845H336.453L335.063 343.084L333.674 341.322L333.993 338.465L334.312 335.609L335.727 334.462L337.143 333.316H338.382H339.621L341.193 334.888L342.765 336.46V338.965V341.47L341.438 343.157L340.11 344.845H338.282ZM338.282 342.924H338.666L339.435 342.155L340.203 341.386V339.031V336.676L339.243 335.878L338.282 335.081L337.321 335.878L336.36 336.676V339.031V341.386L337.129 342.155L337.898 342.924H338.282ZM145.177 294.247H144.217V290.041V285.835L142.936 286.241L141.655 286.648V285.666V284.685L142.894 284.022L144.133 283.359H145.135H146.138V288.803V294.247H145.177ZM153.627 294.236L151.582 294.224L150.878 293.754L150.173 293.283L149.436 291.884L148.7 290.485V288.8V287.115L149.436 285.716L150.173 284.317L150.878 283.846L151.582 283.376L153.627 283.364L155.673 283.353L156.67 284.776L157.667 286.2V288.797V291.394L156.67 292.818L155.673 294.241L153.627 294.236ZM153.425 292.198L154.785 292.004V288.81V285.617L153.58 285.385L152.376 285.153L151.829 286.016L151.282 286.88L151.272 288.589L151.262 290.298L151.664 291.345L152.065 292.392L153.425 292.198ZM328.034 294.246H326.753V290.039V285.833L325.472 286.24L324.191 286.646V285.873V285.1L325.312 284.249L326.433 283.398L327.874 283.379L329.315 283.36V288.804V294.249L328.034 294.246ZM335.977 294.246H333.871L332.874 292.822L331.877 291.399V288.801V286.204L332.874 284.781L333.871 283.357H335.977H338.083L339.303 284.706L340.524 286.054V288.801V291.549L339.303 292.897L338.083 294.246H335.977ZM336.399 292.324H337.504L337.893 291.311L338.282 290.298V288.507V286.717L337.329 285.926L336.377 285.136L335.408 285.507L334.439 285.879V288.675V291.47L334.866 291.897L335.293 292.324L336.399 292.324ZM153.619 194.973H152.075L150.388 193.645L148.7 192.318V188.842V185.366L149.981 184.085L151.262 182.804H153.392H155.522L156.915 184.286L158.307 185.768V188.799V191.829L156.735 193.401L155.163 194.973H153.619ZM153.209 191.771H153.851L154.581 190.169L155.31 188.568L154.581 186.967L153.851 185.366H153.209H152.567L152.165 186.967L151.764 188.568L152.165 190.169L152.567 191.771H153.209ZM336.13 194.973H334.381L332.809 193.401L331.237 191.829V188.597V185.366L332.518 184.085L333.799 182.804H336.04H338.282L339.563 184.085L340.844 185.366V188.777V192.188L339.361 193.58L337.879 194.973H336.13ZM336.794 191.036L337.641 190.333V189.088V187.843L336.956 186.563L336.271 185.283L335.355 186.043L334.439 186.804V188.518V190.233L335.192 190.987L335.946 191.74L336.794 191.036ZM145.177 194.332H143.576V190.446V186.56L142.295 186.967L141.014 187.373V185.832V184.29L142.646 183.547L144.277 182.804H145.528H146.779V188.568V194.332H145.177ZM327.714 194.332H326.113V190.421V186.51L325.128 186.888L324.143 187.266L323.747 186.234L323.351 185.202L324.892 184.017L326.433 182.832L327.874 182.817L329.315 182.802V188.566V194.331L327.714 194.332ZM156.042 144.735L154.096 145.121L152.581 143.894L151.065 142.666L150.78 139.197L150.496 135.729L151.886 133.967L153.276 132.206H155.193H157.111L158.321 132.854L159.532 133.502L160.17 135.811L160.807 138.12L160.466 139.827L160.124 141.534L159.056 142.942L157.987 144.35L156.042 144.735ZM156.199 141.062L157.091 140.322L156.899 138.03L156.706 135.739L155.585 135.527L154.464 135.314V138.137V140.959L154.886 141.381L155.307 141.802L156.199 141.062ZM338.406 144.972L337.321 144.929L335.953 144.266L334.585 143.604L333.872 142.038L333.158 140.472V137.911V135.35L334.73 133.778L336.302 132.206H338.474H340.645L341.865 133.554L343.085 134.902V138.413V141.924L341.288 143.47L339.491 145.015L338.406 144.972ZM338.642 141.139L339.628 140.322L339.435 138.025L339.243 135.729H338.282H337.321L337.116 137.871L336.911 140.014L337.284 140.985L337.657 141.957L338.642 141.139ZM145.498 144.375H141.014V143.224V142.073L143.576 139.571L146.138 137.07V136.239V135.408H145.535H144.933L144.537 136.049L144.141 136.689H142.578H141.014V135.508V134.326L142.186 133.266L143.357 132.206H145.609H147.861L148.921 133.377L149.981 134.548V135.917V137.285L147.993 139.549L146.005 141.813H147.993H149.981V143.094V144.375H145.498ZM328.461 144.375H324.405L323.978 143.948L323.551 143.521V142.96V142.399L326.53 139.214L329.509 136.029L329.091 135.611L328.673 135.193L327.116 136.026L325.559 136.859L324.566 136.478L323.572 136.097L323.971 134.952L324.37 133.807L325.364 133.007L326.358 132.206H328.378H330.398L331.458 133.377L332.518 134.548V136.21V137.872L330.859 139.843L329.201 141.813H330.859H332.518V143.094V144.375H328.461ZM145.628 93.7677L144.537 93.7583L142.936 92.9511L141.335 92.1439L141.119 90.6381L140.904 89.1322L142.721 89.4377L144.537 89.7431L145.418 89.9988L146.298 90.2545L146.592 89.4539L146.885 88.6533H145.156H143.427L143.733 87.0521L144.039 85.4509H142.527H141.014V84.4902V83.5295L142.295 82.2486L143.576 80.9676H145.719H147.861L148.975 82.1981L150.088 83.4285L149.943 85.2403L149.797 87.0521L150.278 88.1744L150.76 89.2967L150.386 90.7866L150.012 92.2766L148.365 93.0269L146.718 93.7772L145.628 93.7677ZM145.818 85.4509H146.779V84.8105V84.17H145.818H144.857V84.8105V85.4509H145.818ZM156.081 93.7772H154.637L152.95 92.4497L151.262 91.1223V87.3259V83.5295L152.543 82.2486L153.824 80.9676H155.745H157.667L158.931 82.2323L160.196 83.4969L160.611 85.1492L161.026 86.8014L160.647 89.1685L160.268 91.5355L158.896 92.6563L157.525 93.7772H156.081ZM155.629 90.5748H156.13L156.898 89.8062L157.667 89.0376V87.6169V86.1962L157.278 85.1831L156.889 84.17H156.009H155.129L154.727 85.7712L154.326 87.3724L154.727 88.9736L155.129 90.5748H155.629ZM328.473 93.7366L327.714 93.696L326.315 93.1322L324.916 92.5685L324.256 91.3356L323.596 90.1027L324 89.6983L324.405 89.2938H325.861H327.318L327.72 89.9448L328.123 90.5957L328.719 90.2272L329.315 89.8587V89.256V88.6533H328.103H326.89L326.552 87.7707L326.213 86.888L326.931 86.1695L327.65 85.4509H328.483H329.315V84.8105V84.17H328.354H327.394V84.8105V85.4509H325.792H324.191V84.2693V83.0876L325.363 82.0276L326.534 80.9676H328.287H330.04L331.324 81.655L332.609 82.3424L332.477 84.6973L332.346 87.0521L332.821 88.1744L333.296 89.2967L332.889 90.9191L332.482 92.5415L330.857 93.1594L329.232 93.7772L328.473 93.7366ZM338.615 93.7772H336.943L335.371 92.2051L333.799 90.633V87.4879V84.3427L335.126 82.6552L336.453 80.9676H338.37H340.288L341.505 81.619L342.722 82.2703L343.409 84.8214L344.096 87.3724L343.409 89.9234L342.722 92.4744L341.505 93.1258L340.288 93.7772H338.615ZM339.287 89.8972L340.203 89.137L340.193 87.4541L340.184 85.7712L339.541 84.8105L338.898 83.8497L337.949 85.093L337.001 86.3363V87.2167V88.0971L337.686 89.3773L338.371 90.6575L339.287 89.8972Z" fill="#F9F9F9"/>
</g>
</g>
<path id="arrow" d="M241.89 38.696H233.884V38.3352V37.9745L237.806 30.9697L241.729 23.965H241.914H242.098L245.997 30.961L249.896 37.9571V38.3265V38.696L241.89 38.696Z" fill="#F5F13A" stroke="black" stroke-width="1.13386"/>
<path id="slip_indicartor" d="M241.89 46.5967H231.962V43.8198V42.5751H241.89H251.817V43.8198V46.5967H241.89Z" fill="#F5F13A" stroke="black" stroke-width="1.13386"/>
<path id="static_middle" d="M189.395 253.256H187.819L187.634 247.652L187.449 242.048L139.573 241.884L91.6975 241.72V240.123V238.526H141.335H190.972V245.891V253.257L189.395 253.256ZM292.463 253.256H290.886V245.891V238.525H340.524H390.161V240.123V241.72L342.285 241.884L294.409 242.048L294.224 247.652L294.039 253.256L292.463 253.256ZM241.89 243.009H239.648V240.447V237.885H241.89H244.131V240.447V243.009H241.89Z" fill="#F5F13A" stroke="black" stroke-width="0.377953"/>
<path id="bank_indicator" d="M45.4228 240.932L0.108948 241.096V239.49V237.885H8.75541H17.4019V232.188V226.492L18.0686 219.859L18.7354 213.226L19.7044 206.501L20.6735 199.776L23.1447 189.529L25.616 179.281L27.9193 172.158L30.2227 165.034L33.0143 158.067L35.8059 151.1L40.6619 141.022L45.5179 130.943L40.9069 128.278L36.296 125.613L31.9398 123.052L27.5836 120.492L27.9368 119.572L28.29 118.651V118.383V118.115H29.0913H29.8925L38.5143 123.225L47.136 128.335L48.3876 126.268L49.6391 124.2L52.5252 119.717L55.4112 115.233L61.1246 107.655L66.838 100.076L70.7673 95.4857L74.6965 90.895L80.7952 84.573L86.8939 78.2509L93.6189 72.4336L100.344 66.6162L107.939 60.9956L115.535 55.3749L121.149 51.8323L126.764 48.2896L123.439 42.0517L120.115 35.8138L118.665 33.4331L117.215 31.0524L117.624 30.3908L118.033 29.7293H118.846H119.66L124.609 38.0555L129.558 46.3817H129.746H129.934L135.955 43.1097L141.975 39.8376L151.902 35.8237L161.83 31.8098L168.235 29.5239L174.639 27.238L180.306 25.6042L185.972 23.9705L195.037 22.1072L204.102 20.244L211.715 19.164L219.329 18.0839L229.782 17.6619L240.234 17.2399L235.779 9.55418L231.324 1.86843L231.323 1.38807L231.322 0.907715H241.89H252.458L252.442 1.38807L252.427 1.86843L247.992 9.55418L243.557 17.2399L252.331 17.6461L261.104 18.0523L267.188 18.7807L273.273 19.509L283.418 21.4447L293.563 23.3803L303.289 26.1716L313.014 28.9629L324.848 33.7441L336.682 38.5253L344.047 42.2781L351.411 46.0309L351.853 46.0461L352.294 46.0612L355.706 40.6171L359.119 35.173L360.918 32.0936L362.717 29.0142L363.469 29.2646L364.221 29.5149L364.402 30.4469L364.583 31.3789L360.079 39.3448L355.575 47.3107L355.613 47.9669L355.65 48.6231L362.072 52.7862L368.494 56.9493L375.44 62.1488L382.385 67.3482L388.995 73.1147L395.605 78.8812L401.37 84.8887L407.134 90.8961L410.762 95.067L414.39 99.2379L421.65 108.924L428.91 118.61L432.753 125.067L436.596 131.525L437.03 131.545L437.464 131.565L446.217 126.363L454.969 121.162L455.946 122.139L456.923 123.116L456.526 123.757L456.13 124.398L453.088 126.149L450.046 127.9L444.078 131.38L438.111 134.86L439.09 136.355L440.07 137.85L444.894 148.793L449.718 159.737L452.285 167.181L454.852 174.625L457.032 182.717L459.213 190.809L460.526 197.214L461.839 203.619L462.864 211.304L463.888 218.99L464.27 228.437L464.651 237.884H474.482H484.312V239.49V241.095L437.717 240.931L391.122 240.766V239.485V238.204L426.147 238.039L461.172 237.873L460.919 235.797L460.665 233.721L460.345 226.356L460.025 218.99L458.995 211.624L457.964 204.259L456.709 197.854L455.454 191.449L453.5 184.163L451.547 176.876L447.417 164.969L443.287 153.063L439.541 145.676L435.795 138.29L432.111 131.885L428.427 125.48L423.673 118.349L418.919 111.218L409.759 100.079L400.599 88.9409L393.299 82.0255L385.999 75.1102L374.79 66.6223L363.582 58.1338L356.216 53.5212L348.851 48.9087L337.322 43.2099L325.794 37.5112L317.147 34.5623L308.501 31.6134L299.526 29.1411L290.551 26.6687L283.834 25.344L277.117 24.0194L270.056 23.0146L262.996 22.0098L252.764 21.3802L242.531 20.7507L241.891 20.7155L241.25 20.68L230.362 21.3391L219.474 21.9983L212.429 22.9806L205.383 23.963L199.939 24.9656L194.495 25.9681L186.943 27.8648L179.391 29.7614L169.01 33.2154L158.628 36.6693L156.067 37.7565L153.505 38.8437L147.046 41.896L140.587 44.9484L132.955 49.272L125.324 53.5957L119.587 57.5142L113.85 61.4328L105.176 68.0407L96.502 74.6486L89.3361 81.3424L82.1701 88.0363L73.7303 98.112L65.2905 108.188L60.9507 114.272L56.6109 120.357L52.9286 126.441L49.2463 132.526L45.1394 140.212L41.0325 147.897L36.9712 158.465L32.9098 169.033L30.6199 176.399L28.33 183.764L26.7591 190.489L25.1881 197.214L23.8719 205.22L22.5557 213.226L21.9085 220.272L21.2613 227.317L21.0889 232.595L20.9165 237.874L55.8271 238.04L90.7377 238.205V239.486V240.767L45.4228 240.932Z" fill="#F9F9F9"/>
</g>
<defs>
<clipPath id="clip0_5_14">
<rect width="484.312" height="483.78" fill="white"/>
</clipPath>
</defs>
</svg>
